<svg width="32" height="32" viewBox="0 0 32 32" fill="none" xmlns="http://www.w3.org/2000/svg">
<path d="M16 32C24.8366 32 32 24.8366 32 16C32 7.16344 24.8366 0 16 0C7.16344 0 0 7.16344 0 16C0 24.8366 7.16344 32 16 32Z" fill="#B35CA1"/>
<path d="M24.805 9.33594H7.195C6.53502 9.33594 6 9.87096 6 10.5309V21.4759C6 22.1359 6.53502 22.6709 7.195 22.6709H24.805C25.465 22.6709 26 22.1359 26 21.4759V10.5309C26 9.87096 25.465 9.33594 24.805 9.33594Z" fill="white" stroke="#07152D" stroke-linejoin="round"/>
<path d="M6 11.3203H26" stroke="#07152D" stroke-linejoin="round"/>
<path d="M18.7251 19.0702L15.8201 17.6152" stroke="#07152D" stroke-width="0.73" stroke-miterlimit="10"/>
<path d="M16.5451 21.25L15.4551 17.25" stroke="#07152D" stroke-width="0.73" stroke-miterlimit="10"/>
<path d="M12.9099 19.07L15.8199 17.25" stroke="#07152D" stroke-width="0.73" stroke-miterlimit="10"/>
<path d="M13.0901 15.25L15.6351 17.43" stroke="#07152D" stroke-width="0.73" stroke-miterlimit="10"/>
<path d="M18.7251 15.0703L15.8201 17.6153" stroke="#07152D" stroke-width="0.73" stroke-miterlimit="10"/>
<path d="M16 13.4297L15.635 17.4297" stroke="#07152D" stroke-width="0.73" stroke-miterlimit="10"/>
<path d="M15.6349 18.8846C16.4385 18.8846 17.0899 18.2332 17.0899 17.4296C17.0899 16.626 16.4385 15.9746 15.6349 15.9746C14.8314 15.9746 14.1799 16.626 14.1799 17.4296C14.1799 18.2332 14.8314 18.8846 15.6349 18.8846Z" fill="#B35CA1" stroke="white" stroke-width="0.73" stroke-miterlimit="10"/>
<path d="M15.9999 14.1551C16.4003 14.1551 16.7249 13.8305 16.7249 13.4301C16.7249 13.0297 16.4003 12.7051 15.9999 12.7051C15.5995 12.7051 15.2749 13.0297 15.2749 13.4301C15.2749 13.8305 15.5995 14.1551 15.9999 14.1551Z" fill="#B35CA1"/>
<path d="M16.3649 21.7957C16.7653 21.7957 17.0899 21.4711 17.0899 21.0707C17.0899 20.6703 16.7653 20.3457 16.3649 20.3457C15.9645 20.3457 15.6399 20.6703 15.6399 21.0707C15.6399 21.4711 15.9645 21.7957 16.3649 21.7957Z" fill="#B35CA1"/>
<path d="M18.9101 15.6102C19.3105 15.6102 19.6351 15.2856 19.6351 14.8852C19.6351 14.4848 19.3105 14.1602 18.9101 14.1602C18.5097 14.1602 18.1851 14.4848 18.1851 14.8852C18.1851 15.2856 18.5097 15.6102 18.9101 15.6102Z" fill="#B35CA1"/>
<path d="M18.9101 20.3402C19.5121 20.3402 20.0001 19.8521 20.0001 19.2502C20.0001 18.6482 19.5121 18.1602 18.9101 18.1602C18.3081 18.1602 17.8201 18.6482 17.8201 19.2502C17.8201 19.8521 18.3081 20.3402 18.9101 20.3402Z" fill="#B35CA1"/>
<path d="M13.09 16.3402C13.692 16.3402 14.18 15.8521 14.18 15.2502C14.18 14.6482 13.692 14.1602 13.09 14.1602C12.488 14.1602 12 14.6482 12 15.2502C12 15.8521 12.488 16.3402 13.09 16.3402Z" fill="#B35CA1"/>
<path d="M12.725 19.9754C13.1254 19.9754 13.45 19.6508 13.45 19.2504C13.45 18.85 13.1254 18.5254 12.725 18.5254C12.3246 18.5254 12 18.85 12 19.2504C12 19.6508 12.3246 19.9754 12.725 19.9754Z" fill="#B35CA1"/>
</svg>
