<?xml version="1.0" encoding="utf-8"?>
<!-- Generator: Adobe Illustrator 22.0.1, SVG Export Plug-In . SVG Version: 6.00 Build 0)  -->
<svg version="1.1" id="Layer_1" xmlns="http://www.w3.org/2000/svg" xmlns:xlink="http://www.w3.org/1999/xlink" x="0px" y="0px"
	 width="32px" height="32px" viewBox="0 0 32 32" enable-background="new 0 0 32 32" xml:space="preserve">
<g>
	<g>
		<path fill="#815DC4" d="M16,32c8.8,0,16-7.2,16-16c0-8.8-7.2-16-16-16C7.2,0,0,7.2,0,16C0,24.8,7.2,32,16,32z"/>
	</g>
	<g>
		<path fill="#FFFFFF" d="M24.8,9.3H7.2C6.5,9.3,6,9.9,6,10.5v10.9c0,0.7,0.5,1.2,1.2,1.2h17.6c0.7,0,1.2-0.5,1.2-1.2V10.5
			C26,9.9,25.5,9.3,24.8,9.3z"/>
		<path fill="#07152D" d="M24.8,23.2H7.2c-0.9,0-1.7-0.8-1.7-1.7V10.5c0-0.9,0.8-1.7,1.7-1.7h17.6c0.9,0,1.7,0.8,1.7,1.7v10.9
			C26.5,22.4,25.7,23.2,24.8,23.2z M7.2,9.8c-0.4,0-0.7,0.3-0.7,0.7v10.9c0,0.4,0.3,0.7,0.7,0.7h17.6c0.4,0,0.7-0.3,0.7-0.7V10.5
			c0-0.4-0.3-0.7-0.7-0.7H7.2z"/>
	</g>
	<g>
		<rect x="6" y="10.8" fill="#07152D" width="20" height="1"/>
	</g>
	<g>
		<path fill="#815DC4" d="M23.1,13.1H8.8c-0.4,0-0.8,0.3-0.8,0.8v5.4c0,0.4,0.3,0.8,0.8,0.8h14.4c0.4,0,0.8-0.3,0.8-0.8v-5.4
			C23.9,13.5,23.6,13.1,23.1,13.1z"/>
	</g>
	<g>
		<path fill="#FFFFFF" d="M10.1,18.6l1.4-4h0.6l1.4,4H13l-0.4-1.2h-1.5l-0.4,1.2H10.1z M11.8,15.2L11.2,17h1.2L11.8,15.2L11.8,15.2z
			"/>
	</g>
	<g>
		<path fill="#FFFFFF" d="M16,14.6c1.2,0,1.8,0.7,1.8,2s-0.6,2-1.8,2h-1.3v-4H16z M15.2,18.1h0.7c0.8,0,1.2-0.5,1.2-1.5
			s-0.4-1.5-1.2-1.5h-0.7L15.2,18.1z"/>
	</g>
	<g>
		<path fill="#FFFFFF" d="M19.3,17.6c0.1,0.2,0.2,0.4,0.4,0.5c0.2,0.1,0.4,0.2,0.6,0.1c0.6,0,0.9-0.3,0.9-0.7c0-0.3-0.2-0.5-0.6-0.6
			l-0.7-0.2c-0.3,0-0.5-0.2-0.7-0.4c-0.2-0.2-0.3-0.4-0.3-0.7c0-0.7,0.6-1.2,1.4-1.2c0.3,0,0.6,0.1,0.9,0.2c0.3,0.2,0.4,0.5,0.5,0.8
			h-0.5c-0.1-0.2-0.2-0.3-0.3-0.4C20.7,15,20.5,15,20.3,15c-0.5,0-0.8,0.3-0.8,0.7c0,0.3,0.2,0.5,0.6,0.6l0.7,0.2
			c0.7,0.2,1,0.5,1,1.1c0,0.7-0.6,1.2-1.5,1.2c-0.8,0-1.4-0.5-1.4-1.1H19.3z"/>
	</g>
</g>
</svg>
