<svg id="Layer_1" data-name="Layer 1" xmlns="http://www.w3.org/2000/svg" viewBox="0 0 64 64"><defs><style>.cls-1,.cls-4{fill:#d3d3d5;}.cls-2{fill:#fff;}.cls-2,.cls-3,.cls-4{stroke:#000;stroke-linejoin:round;}.cls-3{fill:none;}.cls-4{stroke-linecap:round;}</style></defs><title>Analytics_off</title><circle class="cls-1" cx="32" cy="32" r="32"/><rect class="cls-2" x="12" y="18.67" width="40" height="26.67" rx="2.39"/><line class="cls-3" x1="12" y1="22.64" x2="52" y2="22.64"/><path class="cls-1" d="M18.75,41a1,1,0,0,1-1,1h0a1,1,0,0,1-1-1V27a1,1,0,0,1,1-1h0a1,1,0,0,1,1,1Z"/><path class="cls-1" d="M24.45,41a1,1,0,0,1-1,1h0a1,1,0,0,1-1-1V29a1,1,0,0,1,1-1h0a1,1,0,0,1,1,1Z"/><path class="cls-1" d="M30.15,41a1,1,0,0,1-1,1h0a1,1,0,0,1-1-1V31a1,1,0,0,1,1-1h0a1,1,0,0,1,1,1Z"/><path class="cls-1" d="M35.85,41a1,1,0,0,1-1,1h0a1,1,0,0,1-1-1V31a1,1,0,0,1,1-1h0a1,1,0,0,1,1,1Z"/><path class="cls-1" d="M41.55,41a1,1,0,0,1-1,1h0a1,1,0,0,1-1-1V33a1,1,0,0,1,1-1h0a1,1,0,0,1,1,1Z"/><path class="cls-1" d="M47.25,41a1,1,0,0,1-1,1h0a1,1,0,0,1-1-1V39a1,1,0,0,1,1-1h0a1,1,0,0,1,1,1Z"/><line class="cls-4" x1="15" y1="42" x2="49" y2="42"/></svg>