<svg width="12" height="12" viewBox="0 0 12 12" fill="none" xmlns="http://www.w3.org/2000/svg">
<path d="M11.4 6C11.4 8.98234 8.98234 11.4 6 11.4C3.01766 11.4 0.6 8.98234 0.6 6C0.6 3.01766 3.01766 0.6 6 0.6C8.98234 0.6 11.4 3.01766 11.4 6Z" stroke="#6A7281" stroke-width="1.2"/>
<path fill-rule="evenodd" clip-rule="evenodd" d="M5.86167 2.25C6.09582 2.25 6.29395 2.33195 6.45605 2.49586C6.61816 2.65976 6.69921 2.85699 6.69921 3.08754C6.69921 3.31808 6.61726 3.51441 6.45335 3.67651C6.28944 3.83862 6.09222 3.91967 5.86167 3.91967C5.63112 3.91967 5.4348 3.83862 5.27269 3.67651C5.11059 3.51441 5.02954 3.31808 5.02954 3.08754C5.02954 2.85699 5.11059 2.65976 5.27269 2.49586C5.4348 2.33195 5.63112 2.25 5.86167 2.25ZM6.61816 4.69777V8.70173C6.61816 9.05836 6.65958 9.2862 6.74244 9.38527C6.82529 9.48433 6.98739 9.54107 7.22875 9.55548V9.75H4.5V9.55548C4.72334 9.54827 4.88905 9.48343 4.99712 9.36095C5.06916 9.2781 5.10519 9.05836 5.10519 8.70173V5.75144C5.10519 5.39481 5.06376 5.16697 4.98091 5.0679C4.89805 4.96884 4.73775 4.9121 4.5 4.89769V4.69777H6.61816Z" fill="#6A7281"/>
</svg>
