<svg width="32" height="32" viewBox="0 0 32 32" fill="none" xmlns="http://www.w3.org/2000/svg">
<path d="M16 32C24.8366 32 32 24.8366 32 16C32 7.16344 24.8366 0 16 0C7.16344 0 0 7.16344 0 16C0 24.8366 7.16344 32 16 32Z" fill="#1CB2A4"/>
<path d="M24.805 9.33594H7.195C6.53502 9.33594 6 9.87096 6 10.5309V21.4759C6 22.1359 6.53502 22.6709 7.195 22.6709H24.805C25.465 22.6709 26 22.1359 26 21.4759V10.5309C26 9.87096 25.465 9.33594 24.805 9.33594Z" fill="white" stroke="#07152D" stroke-linejoin="round"/>
<path d="M6 11.3203H26" stroke="#07152D" stroke-linejoin="round"/>
<path d="M9.375 20.5C9.375 20.6326 9.32232 20.7598 9.22855 20.8536C9.13479 20.9473 9.00761 21 8.875 21C8.74239 21 8.61521 20.9473 8.52145 20.8536C8.42768 20.7598 8.375 20.6326 8.375 20.5V13.5C8.375 13.3674 8.42768 13.2402 8.52145 13.1464C8.61521 13.0527 8.74239 13 8.875 13C9.00761 13 9.13479 13.0527 9.22855 13.1464C9.32232 13.2402 9.375 13.3674 9.375 13.5V20.5Z" fill="#1CB2A4"/>
<path d="M12.2251 20.5C12.2251 20.6326 12.1724 20.7598 12.0787 20.8536C11.9849 20.9473 11.8577 21 11.7251 21C11.5925 21 11.4653 20.9473 11.3715 20.8536C11.2778 20.7598 11.2251 20.6326 11.2251 20.5V14.5C11.2251 14.3674 11.2778 14.2402 11.3715 14.1464C11.4653 14.0527 11.5925 14 11.7251 14C11.8577 14 11.9849 14.0527 12.0787 14.1464C12.1724 14.2402 12.2251 14.3674 12.2251 14.5V20.5Z" fill="#1CB2A4"/>
<path d="M15.075 20.5C15.075 20.6326 15.0223 20.7598 14.9285 20.8536C14.8347 20.9473 14.7076 21 14.575 21C14.4423 21 14.3152 20.9473 14.2214 20.8536C14.1276 20.7598 14.075 20.6326 14.075 20.5V15.5C14.075 15.3674 14.1276 15.2402 14.2214 15.1464C14.3152 15.0527 14.4423 15 14.575 15C14.7076 15 14.8347 15.0527 14.9285 15.1464C15.0223 15.2402 15.075 15.3674 15.075 15.5V20.5Z" fill="#1CB2A4"/>
<path d="M17.925 20.5C17.925 20.6326 17.8724 20.7598 17.7786 20.8536C17.6848 20.9473 17.5577 21 17.425 21C17.2924 21 17.1653 20.9473 17.0715 20.8536C16.9777 20.7598 16.925 20.6326 16.925 20.5V15.5C16.925 15.3674 16.9777 15.2402 17.0715 15.1464C17.1653 15.0527 17.2924 15 17.425 15C17.5577 15 17.6848 15.0527 17.7786 15.1464C17.8724 15.2402 17.925 15.3674 17.925 15.5V20.5Z" fill="#1CB2A4"/>
<path d="M20.7749 20.5C20.7749 20.6326 20.7222 20.7598 20.6285 20.8536C20.5347 20.9473 20.4075 21 20.2749 21C20.1423 21 20.0151 20.9473 19.9213 20.8536C19.8276 20.7598 19.7749 20.6326 19.7749 20.5V16.5C19.7749 16.3674 19.8276 16.2402 19.9213 16.1464C20.0151 16.0527 20.1423 16 20.2749 16C20.4075 16 20.5347 16.0527 20.6285 16.1464C20.7222 16.2402 20.7749 16.3674 20.7749 16.5V20.5Z" fill="#1CB2A4"/>
<path d="M23.625 20.5C23.625 20.6326 23.5723 20.7598 23.4786 20.8536C23.3848 20.9473 23.2576 21 23.125 21C22.9924 21 22.8652 20.9473 22.7714 20.8536C22.6777 20.7598 22.625 20.6326 22.625 20.5V19.5C22.625 19.3674 22.6777 19.2402 22.7714 19.1464C22.8652 19.0527 22.9924 19 23.125 19C23.2576 19 23.3848 19.0527 23.4786 19.1464C23.5723 19.2402 23.625 19.3674 23.625 19.5V20.5Z" fill="#1CB2A4"/>
<path d="M7.5 21H24.5" stroke="#07152D" stroke-linecap="round" stroke-linejoin="round"/>
</svg>
