<svg id="Layer_1" data-name="Layer 1" xmlns="http://www.w3.org/2000/svg" viewBox="0 0 64 64"><defs><style>.cls-1,.cls-5{fill:#d3d3d5;}.cls-2{fill:#fff;}.cls-2,.cls-3,.cls-4{stroke:#000;stroke-linejoin:round;}.cls-3,.cls-4{fill:none;}.cls-4{stroke-linecap:round;}.cls-5{fill-rule:evenodd;}</style></defs><title>Customer-Interaction_off</title><circle class="cls-1" cx="32" cy="32" r="32"/><rect class="cls-2" x="12" y="18.67" width="40" height="26.67" rx="2.39"/><line class="cls-3" x1="12" y1="22.64" x2="52" y2="22.64"/><path class="cls-4" d="M29.83,41.7a8,8,0,0,0,9.29-11.34"/><polygon points="30.7 40.04 29.44 43.46 28.36 41.12 30.7 40.04"/><path class="cls-4" d="M35.12,26.64A8,8,0,0,0,25.39,38.5"/><polygon points="34.05 28.17 35.73 24.94 36.51 27.39 34.05 28.17"/><path class="cls-5" d="M34.14,31.14A2.14,2.14,0,1,1,32,29a2.14,2.14,0,0,1,2.14,2.14"/><path class="cls-5" d="M34.86,39H29.14V36.86a2.86,2.86,0,0,1,5.72,0Z"/><circle class="cls-1" cx="18.5" cy="27.5" r="2"/><circle class="cls-1" cx="45" cy="40" r="2"/><circle class="cls-1" cx="19" cy="40" r="1"/><circle class="cls-1" cx="43" cy="26" r="1"/></svg>