<?xml version="1.0" encoding="utf-8"?>
<!-- Generator: Adobe Illustrator 22.0.1, SVG Export Plug-In . SVG Version: 6.00 Build 0)  -->
<svg version="1.1" id="Layer_1" xmlns="http://www.w3.org/2000/svg" xmlns:xlink="http://www.w3.org/1999/xlink" x="0px" y="0px"
	 width="18px" height="20px" viewBox="0 0 18 20" enable-background="new 0 0 18 20" xml:space="preserve">
<title>Group 13 Copy</title>
<desc>Created with Sketch.</desc>
<g id="Manage-Scans" fill="#404040">
	<g id="manage-scans_task-list" transform="translate(-1100.000000, -560.000000)">
		<g id="Group-13-Copy" transform="translate(1100.000000, 561.000000)">
			<g id="Stroke-1">
				<path d="M13.2,18.3H4c-1.3,0-2.3-1-2.3-2.3L1.5,2.6c0-0.2,0.1-0.3,0.2-0.4C1.8,2,2,2,2.1,2H15
					c0.2,0,0.3,0.1,0.4,0.2c0.1,0.1,0.2,0.3,0.2,0.4L15.4,16C15.4,17.3,14.4,18.3,13.2,18.3z M2.7,3.2L2.9,16c0,0.6,0.5,1.1,1.1,1.1
					h9.2c0.6,0,1.1-0.5,1.1-1.1l0.2-12.9H2.7z"/>
			</g>
			<g id="Stroke-3">
				<rect y="1.9" width="17.1" height="1.2"/>
			</g>
			<g id="Stroke-5">
				<rect x="5.2" y="4" width="1.2" height="12.3"/>
			</g>
			<g id="Stroke-7">
				<rect x="8" y="4" width="1.2" height="12.3"/>
			</g>
			<g id="Stroke-9">
				<rect x="10.7" y="4" width="1.2" height="12.3"/>
			</g>
			<g id="Stroke-11">
				<path d="M13,2.9H4.1c-0.3,0-0.6-0.3-0.6-0.6V2c0-1.2,1-2.1,2.1-2.1h5.8c1.2,0,2.1,1,2.1,2.1v0.3
					C13.6,2.6,13.3,2.9,13,2.9z M4.8,1.7h7.5C12.2,1.3,11.8,1,11.4,1H5.7C5.3,1,4.9,1.3,4.8,1.7z"/>
			</g>
		</g>
	</g>
</g>
</svg>
