<?xml version="1.0" encoding="utf-8"?>
<!-- Generator: Adobe Illustrator 22.0.1, SVG Export Plug-In . SVG Version: 6.00 Build 0)  -->
<svg version="1.1" id="Layer_1" xmlns="http://www.w3.org/2000/svg" xmlns:xlink="http://www.w3.org/1999/xlink" x="0px" y="0px"
	 width="194.7px" height="112.5px" viewBox="0 0 194.7 112.5" enable-background="new 0 0 194.7 112.5" xml:space="preserve">
<g opacity="0.2193">
	<path fill="#9E9FA4" d="M101,52.3l38.6,34.9c-19.2,21.3-52,23-73.4,3.8c-21.3-19.2-23.1-52.1-3.9-73.5c4.2-4.7,8.7-8.2,14.2-11.1
		L101,52.3z"/>
	<path fill="#515B6D" d="M101,52.3l45,26.1c-1.9,3.3-3.8,5.9-6.4,8.8L101,52.3z"/>
	<path fill="#6A7281" d="M101,52.3l49.4,16.1c-1.2,3.7-2.5,6.6-4.4,9.9L101,52.3z"/>
	<path fill="#384357" d="M101,52.3l38-35.4C152.1,31,156.3,50,150.4,68.4L101,52.3z"/>
	<path fill="#222838" d="M101,52.3l-24.4-46C97.8-5,122.5-0.8,138.9,16.8L101,52.3z"/>
	<path fill="#EDEDEE" d="M137.9,32.7c10.9,20.4,3.1,45.7-17.2,56.6C100.3,100,75,92.3,64.1,71.9C53.3,51.4,61,26.1,81.3,15.3
		C101.7,4.5,127,12.2,137.9,32.7z"/>
</g>
<g opacity="0.2193">
	<path fill="#9E9FA4" d="M17.5,21.4l15.5-7.9c4.4,8.6,1,19.1-7.6,23.5c-8.6,4.4-19.1,1-23.5-7.7c-1-1.9-1.5-3.7-1.8-5.8L17.5,21.4z"
		/>
	<path fill="#515B6D" d="M17.6,21.1L31.3,9.8c0.8,1,1.4,2,2,3.2L17.6,21.1z"/>
	<path fill="#6A7281" d="M17.3,21.4l11-13.6c1,0.8,1.8,1.6,2.6,2.6L17.3,21.4z"/>
	<path fill="#384357" d="M17.6,21L11.2,4.8c5.8-2.4,12.1-1.4,17,2.7L17.6,21z"/>
	<path fill="#222838" d="M17.4,21.2L0.1,23.3c-1-7.9,3.3-15,10.8-18L17.4,21.2z"/>
	<path fill="#EDEDEE" d="M15.2,7.2c7.6-0.9,14.6,4.5,15.5,12.1c0.9,7.6-4.5,14.6-12.2,15.5S4,30.3,3.1,22.7
		C2.2,15.1,7.6,8.1,15.2,7.2z"/>
</g>
<g opacity="0.2193">
	<path fill="#9E9FA4" d="M175.4,92.9l15.6,11.8c-6.4,8.6-18.7,10.3-27.3,3.7c-8.6-6.5-10.4-18.8-3.9-27.4c1.4-1.9,3-3.3,4.9-4.6
		L175.4,92.9z"/>
	<path fill="#515B6D" d="M175.4,92.5l17.8,8.2c-0.6,1.3-1.3,2.4-2.1,3.5L175.4,92.5z"/>
	<path fill="#6A7281" d="M175.3,92.4l19.3,4.2c-0.3,1.4-0.8,2.6-1.4,3.9L175.3,92.4z"/>
	<path fill="#384357" d="M175.2,92.2l12.7-14.3c5.4,4.9,7.6,11.9,6.1,18.9L175.2,92.2z"/>
	<path fill="#222838" d="M175,92.7l-10.4-16.1c7.7-5,17.1-4.4,23.8,1.5L175,92.7z"/>
	<path fill="#EDEDEE" d="M188.4,84c4.7,7.3,2.7,17-4.6,21.7c-7.3,4.7-17,2.6-21.7-4.6c-4.7-7.3-2.7-17,4.6-21.7
		C173.9,74.6,183.6,76.7,188.4,84z"/>
</g>
<g opacity="0.2193">
	<path fill="#9E9FA4" d="M30.5,92.4l10.1-5c2.8,5.4,0.6,12.1-5,14.8c-5.6,2.8-12.4,0.6-15.2-4.8c-0.6-1.2-1-2.3-1.1-3.7L30.5,92.4z"
		/>
	<path fill="#515B6D" d="M30.5,91.8l8.6-7.2c0.5,0.7,0.9,1.3,1.3,2L30.5,91.8z"/>
	<path fill="#6A7281" d="M30.1,92.2l7.1-8.8c0.7,0.5,1.1,1,1.7,1.7L30.1,92.2z"/>
	<path fill="#384357" d="M30.7,91.9l-4.3-10.5c4-1.6,8.3-1,11.6,1.7L30.7,91.9z"/>
	<path fill="#222838" d="M30.7,92.2l-11.3,1.4c-0.6-5,2.2-9.5,7.1-11.4L30.7,92.2z"/>
	<path fill="#EDEDEE" d="M29,83c5-0.6,9.6,2.9,10.2,7.9c0.6,5-3,9.6-8,10.2c-5,0.6-9.6-2.9-10.2-7.9C20.4,88.2,23.9,83.6,29,83z"/>
</g>
<g opacity="0.2193">
	<path fill="#9E9FA4" d="M174,10.6l7-3.5c2,3.8,0.4,8.5-3.4,10.5c-3.9,2-8.6,0.4-10.5-3.4c-0.4-0.8-0.7-1.7-0.8-2.6L174,10.6z"/>
	<path fill="#515B6D" d="M174.2,9.6l5.7-5.1c0.4,0.5,0.6,0.9,0.9,1.4L174.2,9.6z"/>
	<path fill="#6A7281" d="M173.8,10.1l5.2-5.9c0.5,0.3,0.8,0.7,1.2,1.1L173.8,10.1z"/>
	<path fill="#384357" d="M174.3,9.8l-3-7.2c2.8-1.1,5.7-0.7,8,1.1L174.3,9.8z"/>
	<path fill="#222838" d="M174.3,10.5l-7.8,1c-0.4-3.3,1.5-6.3,4.9-7.6L174.3,10.5z"/>
	<path fill="#EDEDEE" d="M173.6,4c3.6-0.4,6.8,1.9,7.2,5.2s-2.2,6.4-5.7,6.8c-3.6,0.4-6.8-1.9-7.2-5.2C167.5,7.5,170,4.5,173.6,4z"
		/>
</g>
</svg>
