<svg width="32" height="32" viewBox="0 0 32 32" fill="none" xmlns="http://www.w3.org/2000/svg">
<path d="M16 32C24.8366 32 32 24.8366 32 16C32 7.16344 24.8366 0 16 0C7.16344 0 0 7.16344 0 16C0 24.8366 7.16344 32 16 32Z" fill="#FF9933"/>
<path d="M24.805 9.33594H7.195C6.53502 9.33594 6 9.87096 6 10.5309V21.4759C6 22.1359 6.53502 22.6709 7.195 22.6709H24.805C25.465 22.6709 26 22.1359 26 21.4759V10.5309C26 9.87096 25.465 9.33594 24.805 9.33594Z" fill="white" stroke="#07152D" stroke-linejoin="round"/>
<path d="M6 11.3203H26" stroke="#07152D" stroke-linejoin="round"/>
<path d="M15.75 12.375V21.375" stroke="#07152D" stroke-width="0.87" stroke-linecap="round" stroke-linejoin="round"/>
<path d="M11.25 16.875H20.25" stroke="#07152D" stroke-width="0.87" stroke-linecap="round" stroke-linejoin="round"/>
<path d="M15.7501 20.2492C17.5588 20.2492 19.0251 18.783 19.0251 16.9742C19.0251 15.1655 17.5588 13.6992 15.7501 13.6992C13.9414 13.6992 12.4751 15.1655 12.4751 16.9742C12.4751 18.783 13.9414 20.2492 15.7501 20.2492Z" fill="white" stroke="#07152D" stroke-width="0.82" stroke-linejoin="round"/>
<path d="M15.7501 20.2492C17.5588 20.2492 19.0251 18.783 19.0251 16.9742C19.0251 15.1655 17.5588 13.6992 15.7501 13.6992C13.9414 13.6992 12.4751 15.1655 12.4751 16.9742C12.4751 18.783 13.9414 20.2492 15.7501 20.2492Z" fill="white" stroke="#07152D" stroke-width="0.82" stroke-linejoin="round"/>
<path d="M15.7499 19.4295C17.1058 19.4295 18.2049 18.3304 18.2049 16.9745C18.2049 15.6187 17.1058 14.5195 15.7499 14.5195C14.3941 14.5195 13.2949 15.6187 13.2949 16.9745C13.2949 18.3304 14.3941 19.4295 15.7499 19.4295Z" fill="#FF9933"/>
<path d="M14.25 16.9746L15.25 17.9746L17.25 15.9746" stroke="#07152D" stroke-width="0.8" stroke-linecap="round" stroke-linejoin="round"/>
</svg>
