<?xml version="1.0" encoding="UTF-8"?>
<svg width="8px" height="14px" viewBox="0 0 8 14" version="1.1" xmlns="http://www.w3.org/2000/svg" xmlns:xlink="http://www.w3.org/1999/xlink">
    <!-- Generator: Sketch 53.2 (72643) - https://sketchapp.com -->
    <title>lock</title>
    <desc>Created with Sketch.</desc>
    <g id="lock" stroke="none" stroke-width="1" fill="none" fill-rule="evenodd">
        <g id="Group-9">
            <path d="M1.3809,13.5311 C0.9879,13.5311 0.6699,13.2121 0.6699,12.8191 L0.6699,6.8691 L7.3309,6.8691 L7.3309,12.8191 C7.3309,13.2121 7.0119,13.5311 6.6189,13.5311 L1.3809,13.5311 Z" id="Fill-1" fill="#198019"></path>
            <path d="M8,6.2 L0,6.2 L0,12.819 C0,13.582 0.618,14.2 1.381,14.2 L6.619,14.2 C7.382,14.2 8,13.582 8,12.819 L8,6.2 Z M6.661,7.539 L6.661,12.819 C6.661,12.843 6.643,12.861 6.619,12.861 L1.381,12.861 C1.357,12.861 1.339,12.843 1.339,12.819 L1.339,7.539 L6.661,7.539 L6.661,7.539 Z" id="Fill-3" fill="#198019"></path>
            <path d="M6.5,7.7 L6.5,3.2 C6.5,1.819 5.381,0.7 4,0.7 C2.619,0.7 1.5,1.819 1.5,3.2 L1.5,6.2" id="Stroke-5" stroke="#198019" stroke-width="1.4" stroke-linecap="round"></path>
            <path d="M4.9287,12.1502 L4.5977,9.6692 C4.7447,9.5182 4.8357,9.3122 4.8357,9.0862 C4.8357,8.6242 4.4617,8.2502 3.9997,8.2502 C3.5387,8.2502 3.1637,8.6242 3.1637,9.0862 C3.1637,9.3122 3.2557,9.5182 3.4027,9.6692 L3.0717,12.1502 L4.9287,12.1502 Z" id="Fill-7" fill="#FFFFFF"></path>
        </g>
    </g>
</svg>