<svg width="32" height="32" viewBox="0 0 32 32" fill="none" xmlns="http://www.w3.org/2000/svg">
<path d="M16 32C24.8366 32 32 24.8366 32 16C32 7.16344 24.8366 0 16 0C7.16344 0 0 7.16344 0 16C0 24.8366 7.16344 32 16 32Z" fill="#269AC8"/>
<path d="M24.805 9.33594H7.195C6.53502 9.33594 6 9.87096 6 10.5309V21.4759C6 22.1359 6.53502 22.6709 7.195 22.6709H24.805C25.465 22.6709 26 22.1359 26 21.4759V10.5309C26 9.87096 25.465 9.33594 24.805 9.33594Z" fill="white" stroke="#07152D" stroke-linejoin="round"/>
<path d="M6 11.3203H26" stroke="#07152D" stroke-linejoin="round"/>
<path d="M14.915 20.8497C15.6638 21.0602 16.4577 21.0479 17.1996 20.8142C17.9414 20.5805 18.5991 20.1356 19.092 19.5339C19.5849 18.9322 19.8917 18.1999 19.9748 17.4265C20.0579 16.6532 19.9138 15.8724 19.56 15.1797" stroke="#07152D" stroke-linecap="round" stroke-linejoin="round"/>
<path d="M15.3499 20.0195L14.7199 21.7295L14.1799 20.5595L15.3499 20.0195Z" fill="#07152D"/>
<path d="M17.5599 13.32C16.7651 12.9849 15.8833 12.9158 15.046 13.1228C14.2087 13.3298 13.4607 13.802 12.9136 14.4688C12.3666 15.1356 12.0497 15.9614 12.0103 16.8231C11.9709 17.6847 12.211 18.536 12.6949 19.25" stroke="#07152D" stroke-linecap="round" stroke-linejoin="round"/>
<path d="M17.0249 14.0857L17.8649 12.4707L18.2549 13.6957L17.0249 14.0857Z" fill="#07152D"/>
<path fill-rule="evenodd" clip-rule="evenodd" d="M17.0699 15.57C17.0699 15.7816 17.0072 15.9885 16.8896 16.1645C16.772 16.3404 16.6049 16.4776 16.4094 16.5586C16.2139 16.6395 15.9987 16.6607 15.7912 16.6194C15.5836 16.5782 15.393 16.4762 15.2433 16.3266C15.0937 16.177 14.9918 15.9863 14.9505 15.7787C14.9092 15.5712 14.9304 15.356 15.0114 15.1605C15.0924 14.965 15.2295 14.7979 15.4055 14.6803C15.5814 14.5628 15.7883 14.5 15.9999 14.5C16.2837 14.5 16.5559 14.6127 16.7565 14.8134C16.9572 15.0141 17.0699 15.2862 17.0699 15.57Z" fill="#269AC8"/>
<path fill-rule="evenodd" clip-rule="evenodd" d="M17.4301 19.5H14.5701V18.43C14.5701 18.0507 14.7207 17.687 14.9889 17.4188C15.2571 17.1507 15.6208 17 16.0001 17C16.3793 17 16.7431 17.1507 17.0112 17.4188C17.2794 17.687 17.4301 18.0507 17.4301 18.43V19.5Z" fill="#269AC8"/>
<path d="M9.25 14.75C9.80228 14.75 10.25 14.3023 10.25 13.75C10.25 13.1977 9.80228 12.75 9.25 12.75C8.69772 12.75 8.25 13.1977 8.25 13.75C8.25 14.3023 8.69772 14.75 9.25 14.75Z" fill="#269AC8"/>
<path d="M22.5 21C23.0523 21 23.5 20.5523 23.5 20C23.5 19.4477 23.0523 19 22.5 19C21.9477 19 21.5 19.4477 21.5 20C21.5 20.5523 21.9477 21 22.5 21Z" fill="#269AC8"/>
<path d="M9.5 20.5C9.77614 20.5 10 20.2761 10 20C10 19.7239 9.77614 19.5 9.5 19.5C9.22386 19.5 9 19.7239 9 20C9 20.2761 9.22386 20.5 9.5 20.5Z" fill="#269AC8"/>
<path d="M21.5 13.5C21.7761 13.5 22 13.2761 22 13C22 12.7239 21.7761 12.5 21.5 12.5C21.2239 12.5 21 12.7239 21 13C21 13.2761 21.2239 13.5 21.5 13.5Z" fill="#269AC8"/>
</svg>
