<?xml version="1.0" encoding="utf-8"?>
<!-- Generator: Adobe Illustrator 23.0.2, SVG Export Plug-In . SVG Version: 6.00 Build 0)  -->
<svg version="1.1" id="Layer_1" xmlns="http://www.w3.org/2000/svg" xmlns:xlink="http://www.w3.org/1999/xlink" x="0px" y="0px"
	 viewBox="0 0 24 24" style="enable-background:new 0 0 24 24;" xml:space="preserve">
<style type="text/css">
	.st0{fill:#EDEDEE;}
	.st1{fill:none;}
</style>
<path class="st0" d="M22.07,10.8c-1.16-0.1-2.15-0.83-2.59-1.9c-0.44-1.07-0.26-2.29,0.49-3.17l0.14-0.17L18.44,3.9l-0.17,0.14
	c-0.56,0.47-1.26,0.72-1.99,0.72c-0.41,0-0.81-0.08-1.18-0.24c-1.07-0.44-1.8-1.44-1.9-2.59L13.16,1.5h-2.32l-0.04,0.44
	c-0.1,1.16-0.83,2.15-1.9,2.59C8.53,4.69,8.14,4.77,7.73,4.77C7,4.77,6.29,4.51,5.74,4.04L5.57,3.9L3.9,5.56l0.14,0.17
	c0.75,0.89,0.93,2.1,0.49,3.17c-0.44,1.07-1.44,1.8-2.59,1.9L1.5,10.84v2.32l0.44,0.04c1.16,0.1,2.15,0.83,2.59,1.9
	c0.44,1.07,0.26,2.29-0.49,3.17L3.9,18.44l1.66,1.66l0.17-0.14c0.56-0.47,1.26-0.73,1.99-0.73c0.41,0,0.81,0.08,1.18,0.24
	c1.07,0.44,1.8,1.44,1.9,2.59l0.04,0.44h2.31l0.04-0.44c0.1-1.15,0.83-2.14,1.9-2.59c0.38-0.16,0.78-0.24,1.18-0.24
	c0.73,0,1.43,0.26,1.99,0.73l0.17,0.14l1.66-1.67l-0.14-0.17c-0.75-0.89-0.93-2.1-0.49-3.17c0.44-1.07,1.44-1.8,2.59-1.9l0.43-0.04
	v-2.32L22.07,10.8z M12,16.67c-2.58,0-4.67-2.09-4.67-4.67c0-2.58,2.09-4.67,4.67-4.67s4.67,2.09,4.67,4.67
	C16.67,14.58,14.58,16.67,12,16.67z"/>
<path d="M13.16,1.5l0.04,0.44c0.1,1.15,0.83,2.15,1.9,2.59c0.38,0.16,0.78,0.24,1.18,0.24c0.73,0,1.43-0.26,1.99-0.72l0.17-0.14
	l1.66,1.66l-0.14,0.17c-0.75,0.89-0.93,2.1-0.49,3.17c0.44,1.07,1.44,1.8,2.59,1.9l0.43,0.04v2.32l-0.43,0.04
	c-1.15,0.1-2.15,0.83-2.59,1.9c-0.44,1.07-0.26,2.29,0.49,3.17l0.14,0.17l-1.66,1.67l-0.17-0.14c-0.56-0.47-1.26-0.73-1.99-0.73
	c-0.41,0-0.81,0.08-1.18,0.24c-1.07,0.44-1.8,1.44-1.9,2.59l-0.04,0.44h-2.31l-0.04-0.44c-0.1-1.15-0.83-2.15-1.9-2.59
	c-0.38-0.16-0.78-0.24-1.18-0.24c-0.73,0-1.43,0.26-1.99,0.73L5.57,20.1L3.9,18.44l0.14-0.17c0.75-0.89,0.93-2.1,0.49-3.17
	c-0.44-1.07-1.44-1.8-2.59-1.9L1.5,13.16v-2.32l0.44-0.04c1.15-0.1,2.15-0.83,2.59-1.9c0.44-1.07,0.26-2.29-0.49-3.17L3.9,5.56
	L5.57,3.9l0.17,0.14C6.29,4.51,7,4.77,7.73,4.77c0.41,0,0.81-0.08,1.18-0.24c1.07-0.44,1.8-1.44,1.9-2.59l0.04-0.44H13.16
	 M14.23,0.33H9.77L9.65,1.84C9.58,2.55,9.13,3.18,8.46,3.45C8.23,3.55,7.98,3.6,7.73,3.6c-0.45,0-0.89-0.15-1.24-0.45L5.5,2.32
	L2.32,5.5l0.83,0.99C3.62,7.03,3.73,7.8,3.46,8.46c-0.28,0.66-0.9,1.12-1.61,1.18L0.34,9.77v4.46l1.51,0.13
	c0.72,0.06,1.34,0.52,1.61,1.18c0.28,0.66,0.16,1.43-0.31,1.98l-0.83,0.99l3.18,3.18l0.99-0.83c0.35-0.3,0.79-0.45,1.24-0.45
	c0.25,0,0.5,0.05,0.74,0.15c0.66,0.28,1.12,0.9,1.18,1.61l0.13,1.51h4.45l0.14-1.51c0.06-0.72,0.52-1.34,1.18-1.61
	c0.24-0.1,0.49-0.15,0.74-0.15c0.45,0,0.89,0.15,1.24,0.45l0.99,0.83l3.18-3.18l-0.83-0.99c-0.46-0.55-0.58-1.31-0.31-1.98
	c0.28-0.66,0.9-1.12,1.61-1.18l1.5-0.13V9.77l-1.5-0.13c-0.72-0.06-1.34-0.52-1.61-1.18c-0.28-0.66-0.16-1.43,0.31-1.98l0.83-0.99
	l-3.18-3.18l-0.99,0.83c-0.35,0.3-0.79,0.45-1.24,0.45c-0.25,0-0.5-0.05-0.74-0.15c-0.66-0.28-1.12-0.9-1.18-1.61L14.23,0.33
	L14.23,0.33z"/>
<path d="M12,8.5c1.93,0,3.5,1.57,3.5,3.5s-1.57,3.5-3.5,3.5S8.5,13.93,8.5,12S10.07,8.5,12,8.5 M12,7.33
	c-2.58,0-4.67,2.09-4.67,4.67s2.09,4.67,4.67,4.67s4.67-2.09,4.67-4.67S14.58,7.33,12,7.33L12,7.33z"/>
<rect x="-2" y="-2" class="st1" width="28" height="28"/>
<path d="M13.16,1.5l0.04,0.44c0.1,1.15,0.83,2.15,1.9,2.59c0.38,0.16,0.78,0.24,1.18,0.24c0.73,0,1.43-0.26,1.99-0.72l0.17-0.14
	l1.66,1.66l-0.14,0.17c-0.75,0.89-0.93,2.1-0.49,3.17c0.44,1.07,1.44,1.8,2.59,1.9l0.43,0.04v2.32l-0.43,0.04
	c-1.15,0.1-2.15,0.83-2.59,1.9c-0.44,1.07-0.26,2.29,0.49,3.17l0.14,0.17l-1.66,1.67l-0.17-0.14c-0.56-0.47-1.26-0.73-1.99-0.73
	c-0.41,0-0.81,0.08-1.18,0.24c-1.07,0.44-1.8,1.44-1.9,2.59l-0.04,0.44h-2.31l-0.04-0.44c-0.1-1.15-0.83-2.15-1.9-2.59
	c-0.38-0.16-0.78-0.24-1.18-0.24c-0.73,0-1.43,0.26-1.99,0.73L5.57,20.1L3.9,18.44l0.14-0.17c0.75-0.89,0.93-2.1,0.49-3.17
	c-0.44-1.07-1.44-1.8-2.59-1.9L1.5,13.16v-2.32l0.44-0.04c1.15-0.1,2.15-0.83,2.59-1.9c0.44-1.07,0.26-2.29-0.49-3.17L3.9,5.56
	L5.57,3.9l0.17,0.14C6.29,4.51,7,4.77,7.73,4.77c0.41,0,0.81-0.08,1.18-0.24c1.07-0.44,1.8-1.44,1.9-2.59l0.04-0.44H13.16
	 M14.23,0.33H9.77L9.65,1.84C9.58,2.55,9.13,3.18,8.46,3.45C8.23,3.55,7.98,3.6,7.73,3.6c-0.45,0-0.89-0.15-1.24-0.45L5.5,2.32
	L2.32,5.5l0.83,0.99C3.62,7.03,3.73,7.8,3.46,8.46c-0.28,0.66-0.9,1.12-1.61,1.18L0.34,9.77v4.46l1.51,0.13
	c0.72,0.06,1.34,0.52,1.61,1.18c0.28,0.66,0.16,1.43-0.31,1.98l-0.83,0.99l3.18,3.18l0.99-0.83c0.35-0.3,0.79-0.45,1.24-0.45
	c0.25,0,0.5,0.05,0.74,0.15c0.66,0.28,1.12,0.9,1.18,1.61l0.13,1.51h4.45l0.14-1.51c0.06-0.72,0.52-1.34,1.18-1.61
	c0.24-0.1,0.49-0.15,0.74-0.15c0.45,0,0.89,0.15,1.24,0.45l0.99,0.83l3.18-3.18l-0.83-0.99c-0.46-0.55-0.58-1.31-0.31-1.98
	c0.28-0.66,0.9-1.12,1.61-1.18l1.5-0.13V9.77l-1.5-0.13c-0.72-0.06-1.34-0.52-1.61-1.18c-0.28-0.66-0.16-1.43,0.31-1.98l0.83-0.99
	l-3.18-3.18l-0.99,0.83c-0.35,0.3-0.79,0.45-1.24,0.45c-0.25,0-0.5-0.05-0.74-0.15c-0.66-0.28-1.12-0.9-1.18-1.61L14.23,0.33
	L14.23,0.33z"/>
<path d="M12,8.5c1.93,0,3.5,1.57,3.5,3.5s-1.57,3.5-3.5,3.5S8.5,13.93,8.5,12S10.07,8.5,12,8.5 M12,7.33
	c-2.58,0-4.67,2.09-4.67,4.67s2.09,4.67,4.67,4.67s4.67-2.09,4.67-4.67S14.58,7.33,12,7.33L12,7.33z"/>
<rect x="-2" y="-2" class="st1" width="28" height="28"/>
</svg>
