<svg id="Layer_1" data-name="Layer 1" xmlns="http://www.w3.org/2000/svg" viewBox="0 0 64 64"><defs><style>.cls-1{fill:#d3d3d5;}.cls-2,.cls-4{fill:#fff;}.cls-2,.cls-3{stroke:#000;stroke-linejoin:round;}.cls-3,.cls-5{fill:none;}</style></defs><title>Advertising_on</title><circle class="cls-1" cx="32" cy="32" r="32"/><rect class="cls-2" x="12" y="18.67" width="40" height="26.67" rx="2.39"/><line class="cls-3" x1="12" y1="22.64" x2="52" y2="22.64"/><rect class="cls-1" x="15.97" y="26.24" width="31.83" height="13.96" rx="1.55"/><path class="cls-4" d="M20.29,37.23l2.83-8h1.12l2.82,8H25.92l-.78-2.36H22.19l-.78,2.36Zm3.35-6.75L22.47,34h2.39l-1.17-3.52Z"/><path class="cls-4" d="M32,29.23c2.34,0,3.53,1.39,3.53,4s-1.19,4-3.53,4h-2.6v-8Zm-1.52,7H31.9c1.67,0,2.48-1,2.48-3s-.82-3-2.48-3H30.45Z"/><path class="cls-4" d="M38.67,35.19a1.76,1.76,0,0,0,1.92,1.25c1.11,0,1.8-.54,1.8-1.37,0-.64-.4-1-1.3-1.24l-1.39-.35a2.18,2.18,0,0,1-1.89-2.12C37.81,30,39,29,40.6,29a2.52,2.52,0,0,1,2.78,2.11H42.3A1.57,1.57,0,0,0,40.59,30c-1,0-1.69.53-1.69,1.31,0,.56.4.95,1.13,1.13l1.36.36c1.4.36,2.09,1,2.09,2.18,0,1.46-1.15,2.41-3,2.41-1.69,0-2.78-.91-2.89-2.2Z"/><rect class="cls-5" x="-136" y="-205" width="960" height="640"/><rect class="cls-5" x="-136" y="-205" width="960" height="640"/><rect class="cls-5" x="-136" y="-205" width="960" height="640"/><rect class="cls-5" x="-136" y="-205" width="960" height="640"/></svg>