<?xml version="1.0" encoding="utf-8"?>
<!-- Generator: Adobe Illustrator 22.0.1, SVG Export Plug-In . SVG Version: 6.00 Build 0)  -->
<svg version="1.1" id="Layer_1" xmlns="http://www.w3.org/2000/svg" xmlns:xlink="http://www.w3.org/1999/xlink" x="0px" y="0px"
	 width="20px" height="20px" viewBox="0 0 20 20" enable-background="new 0 0 20 20" xml:space="preserve">
<title>Artboard 40 copy 5</title>
<g id="Layer_5">
	<g>
		<path fill="#E42822" d="M2.5,0h15C18.9,0,20,1.1,20,2.5v15c0,1.4-1.1,2.5-2.5,2.5h-15C1.1,20,0,18.9,0,17.5v-15C0,1.1,1.1,0,2.5,0
			z"/>
	</g>
</g>
<g id="icon">
	<g>
		<path fill="#FFFFFF" d="M5.4,10.6H1.7C1.3,10.6,1,10.3,1,10s0.3-0.6,0.6-0.6h3.8C5.8,9.4,6,9.7,6,10S5.8,10.6,5.4,10.6z"/>
	</g>
	<g>
		<path fill="#FFFFFF" d="M18.3,10.6h-3.8c-0.3,0-0.6-0.3-0.6-0.6s0.3-0.6,0.6-0.6h3.8c0.3,0,0.6,0.3,0.6,0.6S18.7,10.6,18.3,10.6z"
			/>
	</g>
	<g>
		<circle fill="#FFFFFF" cx="10" cy="10.1" r="3.2"/>
	</g>
	<g>
		<rect x="2.5" y="8.5" transform="matrix(0.7061 -0.7081 0.7081 0.7061 -3.9389 9.4269)" fill="#E42822" width="13.8" height="2"/>
	</g>
	<g>
		
			<rect x="3.6" y="9.6" transform="matrix(0.7061 -0.7081 0.7081 0.7061 -4.4155 10.5833)" fill="#E42822" width="13.8" height="2"/>
	</g>
	<g>
		
			<rect x="3.9" y="9.4" transform="matrix(0.7067 -0.7075 0.7075 0.7067 -4.1467 9.9664)" fill="#FFFFFF" width="12.1" height="1.1"/>
	</g>
	<g>
		<path fill="#FFFFFF" d="M10,16.8c-3.7,0-6.8-3-6.8-6.8s3-6.8,6.8-6.8c3.7,0,6.8,3,6.8,6.8S13.7,16.8,10,16.8z M10,4.3
			c-3.2,0-5.7,2.6-5.7,5.7s2.6,5.7,5.7,5.7c3.2,0,5.7-2.6,5.7-5.7S13.1,4.3,10,4.3z"/>
	</g>
	<g>
		<path fill="#FFFFFF" d="M10,19.1c-0.3,0-0.6-0.3-0.6-0.6v-3.8c0-0.3,0.3-0.6,0.6-0.6s0.6,0.3,0.6,0.6v3.8
			C10.6,18.8,10.3,19.1,10,19.1z"/>
	</g>
	<g>
		<path fill="#FFFFFF" d="M10,6.2c-0.3,0-0.6-0.3-0.6-0.6V1.8c0-0.3,0.3-0.6,0.6-0.6s0.6,0.3,0.6,0.6v3.8C10.6,5.9,10.3,6.2,10,6.2z
			"/>
	</g>
</g>
</svg>
